<mxfile host="app.diagrams.net" modified="2024-06-28T20:11:05.664Z" agent="Mozilla/5.0 (Windows NT 10.0; Win64; x64) AppleWebKit/537.36 (KHTML, like Gecko) Chrome/126.0.0.0 Safari/537.36" etag="UI00O3XdCsDjjZAjWo1g" version="24.5.3" type="browser">
  <diagram name="Page-1" id="1AB3oH_lwN7NKIMrATAx">
    <mxGraphModel dx="794" dy="412" grid="1" gridSize="10" guides="1" tooltips="1" connect="1" arrows="1" fold="1" page="1" pageScale="1" pageWidth="850" pageHeight="1100" math="0" shadow="0">
      <root>
        <mxCell id="0" />
        <mxCell id="1" parent="0" />
        <mxCell id="zlSE27MW61Wc6T4fBPHx-1" value="" style="whiteSpace=wrap;html=1;aspect=fixed;" parent="1" vertex="1">
          <mxGeometry x="152" y="154" width="210" height="210" as="geometry" />
        </mxCell>
        <mxCell id="zlSE27MW61Wc6T4fBPHx-2" value="Task&lt;sub&gt;1&lt;/sub&gt;" style="rounded=1;whiteSpace=wrap;html=1;" parent="1" vertex="1">
          <mxGeometry x="161" y="186" width="90" height="40" as="geometry" />
        </mxCell>
        <mxCell id="zlSE27MW61Wc6T4fBPHx-3" value="Task&lt;span style=&quot;font-size: 10px;&quot;&gt;&lt;sub&gt;2&lt;/sub&gt;&lt;/span&gt;" style="rounded=1;whiteSpace=wrap;html=1;" parent="1" vertex="1">
          <mxGeometry x="263" y="186" width="90" height="40" as="geometry" />
        </mxCell>
        <mxCell id="zlSE27MW61Wc6T4fBPHx-4" value="Task&lt;sub&gt;3&lt;/sub&gt;" style="rounded=1;whiteSpace=wrap;html=1;" parent="1" vertex="1">
          <mxGeometry x="161" y="238" width="90" height="40" as="geometry" />
        </mxCell>
        <mxCell id="zlSE27MW61Wc6T4fBPHx-5" value="Task&lt;sub&gt;4&lt;/sub&gt;" style="rounded=1;whiteSpace=wrap;html=1;" parent="1" vertex="1">
          <mxGeometry x="264" y="236" width="90" height="40" as="geometry" />
        </mxCell>
        <mxCell id="zlSE27MW61Wc6T4fBPHx-7" value="Task&lt;sub&gt;i&lt;/sub&gt;" style="rounded=1;whiteSpace=wrap;html=1;" parent="1" vertex="1">
          <mxGeometry x="161" y="289" width="90" height="40" as="geometry" />
        </mxCell>
        <mxCell id="zlSE27MW61Wc6T4fBPHx-8" value="Task&lt;sub&gt;i+1&lt;/sub&gt;" style="rounded=1;whiteSpace=wrap;html=1;" parent="1" vertex="1">
          <mxGeometry x="264" y="287" width="90" height="40" as="geometry" />
        </mxCell>
        <mxCell id="zlSE27MW61Wc6T4fBPHx-9" value="&lt;b&gt;Group Workflow&lt;/b&gt;" style="text;html=1;align=center;verticalAlign=middle;whiteSpace=wrap;rounded=0;" parent="1" vertex="1">
          <mxGeometry x="204" y="127" width="110" height="30" as="geometry" />
        </mxCell>
        <mxCell id="zlSE27MW61Wc6T4fBPHx-11" value="Merge_feature_collection" style="rounded=1;whiteSpace=wrap;html=1;" parent="1" vertex="1">
          <mxGeometry x="383" y="226" width="154" height="54" as="geometry" />
        </mxCell>
        <mxCell id="zlSE27MW61Wc6T4fBPHx-12" value="" style="shape=curlyBracket;whiteSpace=wrap;html=1;rounded=1;labelPosition=left;verticalLabelPosition=middle;align=right;verticalAlign=middle;" parent="1" vertex="1">
          <mxGeometry x="107" y="194" width="20" height="120" as="geometry" />
        </mxCell>
        <mxCell id="zlSE27MW61Wc6T4fBPHx-13" value="" style="shape=curlyBracket;whiteSpace=wrap;html=1;rounded=1;flipH=1;labelPosition=right;verticalLabelPosition=middle;align=left;verticalAlign=middle;" parent="1" vertex="1">
          <mxGeometry x="558" y="194" width="20" height="120" as="geometry" />
        </mxCell>
        <mxCell id="zlSE27MW61Wc6T4fBPHx-14" value="&lt;b&gt;&lt;font style=&quot;font-size: 18px;&quot;&gt;Chain&lt;/font&gt;&lt;/b&gt;" style="text;html=1;align=center;verticalAlign=middle;whiteSpace=wrap;rounded=0;" parent="1" vertex="1">
          <mxGeometry x="18" y="237" width="110" height="30" as="geometry" />
        </mxCell>
        <mxCell id="zlSE27MW61Wc6T4fBPHx-15" value="Results" style="rounded=1;whiteSpace=wrap;html=1;" parent="1" vertex="1">
          <mxGeometry x="606" y="226" width="104" height="54" as="geometry" />
        </mxCell>
        <mxCell id="zlSE27MW61Wc6T4fBPHx-17" value="&lt;b&gt;&lt;font style=&quot;font-size: 37px;&quot;&gt;,&lt;/font&gt;&lt;/b&gt;" style="text;html=1;align=center;verticalAlign=middle;whiteSpace=wrap;rounded=0;" parent="1" vertex="1">
          <mxGeometry x="318" y="233" width="110" height="30" as="geometry" />
        </mxCell>
        <mxCell id="zlSE27MW61Wc6T4fBPHx-18" value="&lt;b&gt;&lt;font style=&quot;font-size: 37px;&quot;&gt;=&lt;/font&gt;&lt;/b&gt;" style="text;html=1;align=center;verticalAlign=middle;whiteSpace=wrap;rounded=0;" parent="1" vertex="1">
          <mxGeometry x="554" y="242" width="68" height="20" as="geometry" />
        </mxCell>
        <mxCell id="zlSE27MW61Wc6T4fBPHx-19" value="Group Tasks=[&lt;div&gt;&lt;b&gt;&amp;nbsp; &amp;nbsp; &amp;nbsp; &amp;nbsp; &amp;nbsp;run_coverage_analysis_task&lt;/b&gt;(&lt;/div&gt;&lt;div&gt;&amp;nbsp; &amp;nbsp; &amp;nbsp; &amp;nbsp; &amp;nbsp; &amp;nbsp; &amp;nbsp; &amp;nbsp; &amp;nbsp; &amp;nbsp; &amp;nbsp; &amp;nbsp; &amp;nbsp; &amp;nbsp; &amp;nbsp; &amp;nbsp; point,&lt;/div&gt;&lt;div&gt;&amp;nbsp; &amp;nbsp; &amp;nbsp; &amp;nbsp; &amp;nbsp; &amp;nbsp; &amp;nbsp; &amp;nbsp; &amp;nbsp; &amp;nbsp; &amp;nbsp; &amp;nbsp; &amp;nbsp; &amp;nbsp; &amp;nbsp; &amp;nbsp; [sat &lt;font color=&quot;#3333ff&quot;&gt;for&lt;/font&gt; sat &lt;font color=&quot;#3333ff&quot;&gt;in&lt;/font&gt; constellation],&lt;/div&gt;&lt;div&gt;&amp;nbsp; &amp;nbsp; &amp;nbsp; &amp;nbsp; &amp;nbsp; &amp;nbsp; &amp;nbsp; &amp;nbsp; &amp;nbsp; &amp;nbsp; &amp;nbsp; &amp;nbsp; &amp;nbsp; &amp;nbsp; &amp;nbsp; &amp;nbsp; start,&lt;/div&gt;&lt;div&gt;&amp;nbsp; &amp;nbsp; &amp;nbsp; &amp;nbsp; &amp;nbsp; &amp;nbsp; &amp;nbsp; &amp;nbsp; &amp;nbsp; &amp;nbsp; &amp;nbsp; &amp;nbsp; &amp;nbsp; &amp;nbsp; &amp;nbsp; &amp;nbsp; end&lt;/div&gt;&lt;div&gt;&amp;nbsp; &amp;nbsp; &amp;nbsp; &amp;nbsp; &amp;nbsp; &amp;nbsp; &amp;nbsp; &amp;nbsp; &amp;nbsp; &amp;nbsp; &amp;nbsp; &amp;nbsp; &amp;nbsp; &amp;nbsp; &amp;nbsp; &amp;nbsp; &amp;nbsp; &amp;nbsp; &amp;nbsp; &amp;nbsp; &amp;nbsp; &amp;nbsp; &amp;nbsp; &amp;nbsp; &amp;nbsp; &amp;nbsp; &amp;nbsp; &amp;nbsp; &amp;nbsp; )&lt;/div&gt;&lt;div&gt;&amp;nbsp; &amp;nbsp; &amp;nbsp; &amp;nbsp; &amp;nbsp; &amp;nbsp; &amp;nbsp; &amp;nbsp; &amp;nbsp; &amp;nbsp; &amp;nbsp; &amp;nbsp; &amp;nbsp; &amp;nbsp; &amp;nbsp; &amp;nbsp;&amp;nbsp;&lt;font color=&quot;#3333ff&quot;&gt;for&lt;/font&gt; point &lt;font color=&quot;#3333ff&quot;&gt;in&lt;/font&gt; points&lt;/div&gt;&lt;div&gt;&amp;nbsp; &amp;nbsp; &amp;nbsp; &amp;nbsp; &amp;nbsp; &amp;nbsp; &amp;nbsp; &amp;nbsp; &amp;nbsp; &amp;nbsp; &amp;nbsp; &amp;nbsp;]&lt;/div&gt;" style="rounded=1;whiteSpace=wrap;html=1;arcSize=7;align=left;" parent="1" vertex="1">
          <mxGeometry x="376" y="322" width="257" height="176" as="geometry" />
        </mxCell>
        <mxCell id="QWTtGY0As4QVkX6XcFS9-2" value="" style="endArrow=classic;html=1;rounded=0;exitX=0.5;exitY=1;exitDx=0;exitDy=0;entryX=-0.023;entryY=0.545;entryDx=0;entryDy=0;entryPerimeter=0;strokeColor=default;curved=1;" edge="1" parent="1" source="zlSE27MW61Wc6T4fBPHx-1" target="zlSE27MW61Wc6T4fBPHx-19">
          <mxGeometry width="50" height="50" relative="1" as="geometry">
            <mxPoint x="380" y="370" as="sourcePoint" />
            <mxPoint x="430" y="320" as="targetPoint" />
            <Array as="points">
              <mxPoint x="250" y="430" />
            </Array>
          </mxGeometry>
        </mxCell>
      </root>
    </mxGraphModel>
  </diagram>
</mxfile>
